<?xml version="1.0" standalone="no"?>
<!DOCTYPE svg PUBLIC "-//W3C//DTD SVG 20010904//EN"
 "http://www.w3.org/TR/2001/REC-SVG-20010904/DTD/svg10.dtd">
<svg version="1.0" xmlns="http://www.w3.org/2000/svg"
 width="2643.000000pt" height="885.000000pt" viewBox="0 0 2643.000000 885.000000"
 preserveAspectRatio="xMidYMid meet">

<g transform="translate(0.000000,885.000000) scale(0.100000,-0.100000)"
fill="#ffffff" stroke="none">
<path d="M420 8834 c-56 -15 -180 -69 -190 -82 -3 -5 -20 -18 -38 -31 -69 -48
-150 -185 -178 -299 -40 -168 14 -354 140 -486 60 -63 124 -103 221 -141 39
-16 75 -20 165 -20 116 0 122 1 230 48 49 21 150 98 177 135 15 20 31 39 34
42 11 9 51 93 70 149 27 78 26 236 -2 320 -11 35 -18 65 -15 68 17 17 227 -72
334 -141 254 -165 419 -379 517 -671 24 -69 48 -187 85 -415 5 -30 14 -82 20
-115 6 -33 15 -86 20 -117 6 -32 14 -84 20 -115 5 -32 14 -85 20 -118 6 -33
15 -89 21 -124 5 -35 11 -66 13 -70 3 -4 14 -61 25 -127 11 -65 29 -171 40
-234 11 -63 27 -158 36 -210 8 -52 19 -117 25 -145 5 -27 14 -79 20 -115 6
-36 17 -96 25 -135 7 -38 18 -98 24 -132 6 -35 16 -91 22 -125 6 -35 15 -85
19 -113 5 -27 14 -79 20 -115 6 -36 15 -87 20 -115 5 -27 14 -78 20 -112 5
-35 15 -91 20 -125 17 -98 28 -158 40 -218 12 -56 37 -200 65 -370 8 -52 19
-117 25 -145 5 -27 14 -79 20 -115 6 -36 15 -87 20 -115 5 -27 14 -79 20 -115
6 -36 17 -96 25 -135 7 -38 18 -98 24 -133 6 -34 16 -90 22 -125 6 -34 15 -84
19 -112 5 -27 14 -78 20 -112 27 -163 32 -191 40 -238 5 -27 14 -79 20 -115
18 -107 28 -161 44 -240 8 -41 20 -106 26 -145 6 -38 15 -92 20 -120 5 -27 14
-79 20 -115 6 -36 15 -87 20 -115 5 -27 14 -79 20 -115 44 -261 59 -316 113
-419 106 -205 299 -354 529 -410 47 -12 94 -21 102 -21 21 0 20 -9 -4 -45 -27
-40 -65 -119 -86 -180 -22 -64 -31 -277 -14 -343 40 -156 90 -242 203 -348 93
-88 171 -128 317 -165 119 -30 225 -22 370 27 243 83 416 319 437 596 10 137
-40 310 -123 426 l-16 22 891 0 c490 0 891 -2 891 -5 0 -3 -13 -26 -30 -53
-73 -120 -100 -214 -100 -357 0 -123 15 -187 70 -302 32 -65 59 -102 118 -162
92 -92 156 -133 277 -174 78 -27 105 -31 200 -31 94 -1 122 3 194 27 232 75
378 222 457 457 14 42 18 85 18 185 0 163 -19 233 -101 363 l-33 52 340 0 340
0 0 130 0 130 -2317 2 -2318 3 -55 21 c-134 51 -216 111 -284 208 -67 93 -81
134 -116 336 -21 116 -29 164 -40 230 -6 36 -17 97 -25 135 -13 67 -22 119
-46 258 -6 34 -14 82 -19 107 -25 134 -32 190 -27 204 6 15 206 16 2241 16
1966 0 2243 2 2300 15 89 21 202 62 248 91 21 13 40 24 42 24 28 0 214 166
264 235 62 85 115 187 145 275 14 43 22 75 68 270 11 47 26 110 35 140 8 30
26 105 40 165 14 61 34 146 44 190 10 44 30 130 44 190 14 61 32 135 40 165 9
30 24 94 36 143 11 48 29 125 40 172 11 47 29 123 40 170 11 47 29 124 40 173
12 48 27 110 34 137 8 28 18 70 24 95 6 25 20 84 31 133 12 48 30 125 41 172
11 47 29 124 40 173 12 48 27 110 34 137 8 28 20 75 26 105 7 30 16 66 20 80
4 14 13 52 20 85 6 33 16 70 21 82 4 12 5 24 1 26 -8 5 -180 22 -372 37 -74 6
-190 15 -257 20 -68 6 -180 15 -250 20 -71 6 -180 15 -243 20 -63 5 -176 14
-250 20 -74 6 -205 17 -290 25 -85 8 -216 19 -290 25 -180 14 -360 28 -500 40
-63 5 -173 14 -245 20 -71 5 -186 14 -255 20 -69 5 -186 14 -260 20 -74 6
-202 17 -285 25 -82 8 -211 19 -285 25 -74 6 -190 15 -257 20 -68 6 -179 15
-248 20 -158 13 -345 28 -505 41 -229 18 -354 28 -490 39 -74 6 -205 17 -290
25 -85 8 -218 19 -295 25 -77 6 -187 15 -245 20 -58 5 -172 14 -255 20 -194
14 -323 28 -335 35 -5 3 -12 27 -15 53 -3 26 -10 67 -15 92 -5 25 -14 77 -20
115 -7 39 -18 99 -25 135 -7 36 -19 97 -25 135 -39 223 -114 408 -242 599 -23
34 -44 63 -47 66 -4 3 -18 22 -34 42 -35 47 -123 136 -184 185 -27 21 -50 41
-53 44 -15 17 -141 95 -222 137 -126 66 -171 83 -318 123 -19 5 -89 18 -155
29 -149 25 -419 27 -505 4z m235 -274 c114 -52 182 -185 155 -302 -32 -140
-138 -228 -275 -228 -70 0 -134 28 -189 84 -61 60 -78 104 -79 196 -1 106 43
186 130 237 80 47 174 51 258 13z m1828 -1769 c51 -6 157 -15 237 -21 80 -6
195 -15 255 -20 61 -5 171 -14 245 -20 74 -6 207 -17 295 -25 88 -8 216 -19
285 -24 260 -21 389 -32 500 -41 63 -5 174 -14 245 -20 237 -18 379 -29 510
-40 72 -6 186 -15 255 -21 69 -5 195 -16 280 -24 85 -8 216 -19 290 -25 180
-14 360 -28 500 -40 63 -5 176 -14 250 -20 74 -6 187 -15 250 -20 63 -5 176
-14 250 -20 74 -6 205 -17 290 -25 85 -8 216 -19 290 -25 74 -6 187 -15 250
-20 63 -5 180 -14 260 -20 80 -6 184 -15 231 -21 47 -5 111 -9 142 -9 31 0 59
-5 62 -10 6 -9 -27 -159 -70 -320 -8 -30 -23 -94 -35 -142 -11 -49 -29 -126
-40 -173 -11 -47 -29 -124 -41 -172 -11 -49 -25 -108 -31 -133 -6 -25 -16 -67
-24 -95 -7 -27 -22 -89 -34 -137 -11 -49 -29 -126 -40 -173 -11 -47 -29 -123
-40 -170 -11 -47 -29 -124 -40 -172 -12 -49 -27 -110 -34 -138 -8 -27 -18 -70
-24 -95 -6 -25 -20 -84 -31 -132 -12 -49 -30 -126 -41 -173 -11 -47 -29 -124
-41 -172 -11 -49 -22 -95 -23 -103 -35 -158 -96 -315 -148 -376 -13 -15 -36
-42 -51 -60 -70 -82 -204 -162 -337 -200 -63 -18 -146 -19 -2304 -22 -1662 -2
-2242 1 -2252 9 -8 6 -14 24 -14 40 0 16 -4 48 -9 71 -20 87 -40 195 -51 268
-6 41 -15 93 -20 115 -5 22 -14 74 -20 115 -6 41 -15 93 -20 115 -5 22 -14 74
-20 115 -6 41 -15 93 -20 115 -5 22 -14 74 -20 115 -6 41 -16 95 -22 120 -9
43 -30 161 -63 360 -8 52 -19 118 -25 145 -5 28 -14 79 -20 115 -6 36 -15 88
-20 115 -5 28 -14 79 -20 115 -17 102 -28 160 -40 220 -11 53 -41 226 -60 340
-5 30 -14 82 -20 115 -6 33 -15 87 -21 120 -21 127 -28 172 -39 230 -6 33 -15
89 -21 124 -5 35 -11 66 -14 70 -2 4 -13 63 -25 132 -11 68 -26 157 -33 197
-8 40 -11 75 -8 77 7 7 52 6 154 -4z m1840 -5716 c68 -20 105 -43 165 -100
122 -114 163 -277 108 -429 -64 -176 -209 -280 -391 -280 -117 0 -190 30 -279
113 -93 89 -129 170 -130 297 0 45 6 101 14 125 38 120 144 227 263 269 65 22
186 25 250 5z m2869 -6 c37 -12 68 -26 68 -30 0 -5 7 -9 16 -9 20 0 134 -115
134 -135 0 -8 4 -15 9 -15 4 0 18 -31 30 -68 67 -214 -34 -435 -239 -518 -52
-21 -82 -27 -151 -27 -84 -1 -102 3 -199 47 -46 20 -149 132 -174 188 -39 88
-50 160 -36 237 49 262 290 409 542 330z"/>
<path d="M4139 787 c-41 -28 -59 -60 -59 -110 0 -53 25 -96 65 -113 66 -27
135 -11 169 40 19 29 21 107 4 139 -35 67 -116 87 -179 44z"/>
<path d="M6993 790 c-71 -43 -84 -144 -25 -203 23 -23 41 -31 79 -34 58 -5 89
10 120 56 76 112 -59 252 -174 181z"/>
<path d="M25273 6527 l-463 -131 0 -323 0 -323 -245 0 -245 0 0 -340 0 -340
244 0 244 0 5 -777 c5 -780 7 -828 44 -973 92 -369 351 -584 758 -630 255 -28
582 5 743 76 l52 23 0 340 0 340 -52 -24 c-128 -59 -284 -69 -400 -25 -78 29
-148 106 -178 194 -35 105 -40 211 -40 849 l0 607 335 0 335 0 0 340 0 340
-335 0 -335 0 -2 453 -3 454 -462 -130z"/>
<path d="M11460 5814 c-796 -72 -1329 -535 -1461 -1269 -30 -165 -33 -520 -5
-670 59 -322 206 -595 434 -805 304 -280 689 -405 1197 -386 320 11 527 52
723 141 l72 34 0 375 0 375 -74 -44 c-124 -73 -237 -118 -381 -151 -119 -28
-349 -26 -470 4 -287 72 -481 266 -556 557 -31 120 -34 389 -6 503 79 328 266
519 591 605 68 18 108 21 246 21 145 -1 177 -4 262 -27 111 -29 244 -89 329
-147 l59 -40 0 396 0 395 -65 30 c-78 35 -228 74 -345 89 -88 12 -470 21 -550
14z"/>
<path d="M14095 5809 c-563 -53 -1016 -340 -1235 -784 -97 -198 -139 -355
-161 -605 -27 -309 13 -611 114 -860 230 -565 759 -880 1482 -880 323 0 595
58 840 180 345 171 614 495 719 867 86 302 98 679 32 974 -143 633 -636 1045
-1326 1108 -131 12 -333 12 -465 0z m430 -724 c144 -38 283 -141 348 -259 83
-150 112 -298 111 -566 -1 -231 -18 -342 -73 -485 -103 -265 -323 -399 -631
-382 -125 7 -201 25 -295 72 -222 109 -335 339 -352 715 -14 316 58 572 204
730 96 104 188 155 333 186 81 17 271 11 355 -11z"/>
<path d="M17700 5814 c-532 -49 -934 -262 -1205 -639 -190 -264 -279 -584
-279 -995 0 -210 14 -317 61 -480 88 -307 294 -586 565 -766 279 -186 607
-266 1028 -250 316 11 523 52 718 141 l72 34 0 375 0 375 -83 -49 c-207 -122
-428 -178 -652 -166 -387 20 -649 223 -742 574 -23 87 -26 115 -26 272 0 156
3 185 26 271 82 308 286 505 599 576 91 20 346 23 433 5 140 -30 280 -90 393
-165 l52 -36 0 395 0 395 -65 30 c-154 70 -330 99 -630 103 -121 2 -240 2
-265 0z"/>
<path d="M20150 5814 c-374 -47 -679 -120 -887 -214 l-73 -33 0 -349 0 -350
38 23 c20 12 49 31 65 41 45 32 266 133 352 162 168 58 396 96 560 96 284 -2
467 -117 513 -325 20 -91 26 -165 12 -165 -55 0 -937 -126 -1016 -145 -417
-100 -670 -305 -772 -625 -60 -187 -64 -434 -12 -634 80 -301 321 -522 648
-593 99 -22 367 -24 467 -4 106 21 231 68 320 120 96 56 239 194 310 300 l50
73 3 -221 2 -221 441 0 440 0 -4 1018 c-3 989 -4 1020 -25 1127 -100 519 -389
805 -902 896 -111 20 -440 34 -530 23z m587 -1806 c-6 -182 -18 -244 -72 -353
-109 -224 -348 -345 -604 -306 -101 16 -170 51 -230 116 -65 72 -86 133 -85
245 0 71 5 95 28 147 52 114 148 183 311 223 75 18 554 85 634 89 l24 1 -6
-162z"/>
<path d="M23737 5781 c-198 -43 -352 -152 -476 -334 -35 -51 -121 -226 -121
-246 0 -6 -4 -11 -10 -11 -6 0 -10 100 -10 280 l0 280 -465 0 -465 0 0 -1500
0 -1500 465 0 465 0 0 740 c0 762 4 865 41 1008 37 148 126 297 222 376 91 74
244 125 375 126 117 0 276 -32 355 -71 l37 -19 0 428 0 429 -37 12 c-21 7 -94
14 -163 17 -99 3 -144 0 -213 -15z"/>
</g>
</svg>
